<svg width="64" height="142" viewBox="0 0 64 142" fill="none" xmlns="http://www.w3.org/2000/svg">
<path d="M0 141.251C5.78 139.733 5.05 140.783 16.37 135.532C16.72 135.361 17.28 135.112 17.98 134.731C18.67 134.33 19.53 133.824 20.53 133.232C21.03 132.936 21.56 132.621 22.13 132.286C22.7 131.962 23.3 131.599 23.88 131.169C25.07 130.329 26.38 129.422 27.77 128.439C33.19 124.353 39.39 118.405 44.24 111.493C49.16 104.628 52.64 96.914 54.51 90.5555C54.75 89.7631 55.02 88.9992 55.22 88.264C55.39 87.5098 55.55 86.7842 55.71 86.0968C56.02 84.7124 56.3 83.4618 56.55 82.3639C56.85 80.1394 57.07 78.5545 57.17 77.8099C57.8 71.8333 57.9 65.7614 56.98 59.7944C56.87 59.0497 56.81 58.2954 56.67 57.5602L56.2 55.3452L55.73 53.1304C55.65 52.7581 55.58 52.3951 55.49 52.0228L55.17 50.9345L53.87 46.5905L52.23 42.3515C49.85 36.776 46.85 31.4486 43.18 26.5508C39.45 21.7008 35.14 17.2804 30.36 13.3947L26.68 10.5879L22.8 8.05774L21.83 7.42771L20.81 6.86434L18.77 5.75694L16.73 4.64955L14.61 3.69482L16.67 4.75444L18.65 5.94784L20.63 7.14124L21.62 7.74284L22.56 8.4111L26.31 11.0653L29.85 13.9677C34.46 17.9584 38.59 22.4073 42.17 27.2382C45.66 32.1264 48.58 37.3775 50.83 42.8767L52.42 47.0392L53.67 51.3067L53.98 52.3761C54.07 52.7389 54.13 53.1016 54.21 53.4644L54.66 55.6412L55.11 57.8085C55.25 58.534 55.3 59.2692 55.4 60.0044C56.33 65.8473 56.25 71.8047 55.67 77.6667C55.57 78.4019 55.37 79.958 55.09 82.1443C54.85 83.2232 54.58 84.4453 54.28 85.8106C54.13 86.4884 53.97 87.1949 53.81 87.9396C53.61 88.6652 53.35 89.4193 53.11 90.1926C51.3 96.4365 47.89 104.017 43.08 110.776C38.33 117.574 32.26 123.436 26.94 127.475C25.57 128.439 24.3 129.346 23.13 130.167C22.56 130.597 21.97 130.95 21.41 131.274C20.85 131.608 20.33 131.914 19.84 132.21C18.86 132.792 18.02 133.298 17.35 133.699C16.66 134.091 16.11 134.33 15.77 134.511C4.74002 139.877 5.45 139.017 0 141.251Z" fill="url(#paint0_linear_73_2223)"/>
<path d="M21.7 7.56133C21.7 7.56133 20.4799 7.72376 18.7499 7.45644C17.8899 7.32278 16.8999 7.07444 15.8599 6.62572C14.7999 6.22474 13.6499 5.69021 12.4999 4.84051C11.7499 4.31541 11.0199 3.65664 10.2399 3.15063C9.47993 2.62553 8.73992 2.10035 8.10992 1.63254C6.82992 0.677816 5.92993 0 5.92993 0C5.92993 0 7.05993 0.0955282 8.67993 0.29602C9.48993 0.40104 10.43 0.52506 11.4 0.677816C12.39 0.811477 13.3399 1.11695 14.2899 1.35563C15.7399 1.77571 16.99 2.32965 17.97 2.99796C18.93 3.70446 19.6699 4.44912 20.2299 5.12697C21.3399 6.48268 21.7 7.56133 21.7 7.56133Z" fill="url(#paint1_linear_73_2223)"/>
<path d="M30.52 12.9651C29.79 11.7622 28.3999 10.4159 27.7899 9.5089C26.3799 7.93361 25.8899 7.14121 25.4299 6.18649C25.1299 5.57547 24.8899 4.65905 24.6899 3.68524C24.4799 2.72096 24.2799 1.74704 24.1799 0.945068C24.1799 0.945068 24.5099 1.17433 25.0499 1.55622C25.5999 1.90947 26.2699 2.52043 27.0099 3.16009C27.7499 3.8093 28.5299 4.5157 29.2299 5.21265C29.5799 5.55635 29.9099 5.89056 30.1899 6.22471C30.4599 6.56841 30.6899 6.89303 30.8699 7.18899C32.5499 9.90041 33.1199 11.619 31.8699 12.9842C31.1999 13.7194 31.27 14.2635 31.45 14.8459C31.45 14.8459 31.32 14.5404 31.15 14.1394C30.96 13.7384 30.72 13.2802 30.52 12.9651Z" fill="url(#paint2_linear_73_2223)"/>
<path d="M29.42 14.1778C28.06 13.7195 26.47 12.7264 25.48 12.3637C23.55 11.5999 22.63 11.4853 21.61 11.428C20.95 11.3899 20.04 11.5331 19.12 11.7432C18.2 11.9723 17.23 12.335 16.5 12.6406C16.5 12.6406 16.81 12.7743 17.32 13.0035C17.84 13.204 18.49 13.5763 19.24 13.9295C19.99 14.2923 20.82 14.6645 21.61 14.9891C22.01 15.1514 22.4 15.2948 22.77 15.419C23.12 15.5622 23.45 15.6862 23.75 15.7721C26.49 16.555 28.33 16.7365 29.6 15.3998C30.3 14.6647 30.87 14.655 31.45 14.8078C31.45 14.8078 31.13 14.7028 30.72 14.5596C30.3 14.4545 29.79 14.3019 29.42 14.1778Z" fill="url(#paint3_linear_73_2223)"/>
<path d="M42.6098 25.472C42.1798 24.1449 41.1399 22.5411 40.7499 21.5195C39.7599 19.6674 39.4499 18.8082 39.2399 17.7771C38.9599 16.4596 39.1399 13.9676 39.2599 12.3923C39.2599 12.3923 40.3899 13.5572 41.4899 15.1516C42.6098 16.7365 43.9299 18.5695 44.3099 19.8966C45.3099 22.8944 45.4699 24.6892 43.9399 25.7489C43.1199 26.3217 43.0299 26.8755 43.0799 27.477C43.0799 27.477 43.0199 27.1428 42.9499 26.7227C42.8699 26.3122 42.7198 25.8252 42.6098 25.472Z" fill="url(#paint4_linear_73_2223)"/>
<path d="M41.25 26.4171C40.03 25.6819 38.71 24.374 37.83 23.8107C36.15 22.6364 35.26 22.3501 34.28 22.0733C33.01 21.72 30.62 21.8249 29.02 22.1686C29.02 22.1686 30.13 22.9612 31.39 24.0114C32.67 25.0425 34.32 26.1498 35.35 26.7704C37.85 28.1166 39.59 28.6893 41.15 27.6582C42 27.0854 42.54 27.2191 43.09 27.4865C43.09 27.4865 42.8 27.3147 42.43 27.0951C42.05 26.866 41.58 26.608 41.25 26.4171Z" fill="url(#paint5_linear_73_2223)"/>
<path d="M51.4502 40.2513C51.3402 38.8669 50.7102 37.0814 50.5702 36.0026C50.0602 33.9786 49.9501 33.0812 49.9801 32.031C50.0101 30.6944 50.7802 28.298 51.2702 26.78C51.2702 26.78 51.4602 27.1237 51.7802 27.687C52.0802 28.2503 52.4201 29.0714 52.8001 29.9498C53.5301 31.7351 54.3701 33.8068 54.4301 35.1912C54.7001 38.3322 54.4301 40.1079 52.6901 40.8144C51.7501 41.1963 51.5401 41.7215 51.4401 42.3134C51.4401 42.3134 51.4601 41.9792 51.4901 41.5496C51.5001 41.1295 51.4702 40.6236 51.4502 40.2513Z" fill="url(#paint6_linear_73_2223)"/>
<path d="M49.9 40.8814C48.88 39.898 47.91 38.3419 47.18 37.6068C45.83 36.0983 45.02 35.6304 44.14 35.1435C42.98 34.5325 40.64 34.1123 39 34.1028C39 34.1028 39.22 34.3607 39.57 34.7617C39.92 35.1723 40.34 35.7737 40.86 36.4038C41.87 37.6831 43.21 39.1152 44.07 39.9458C46.19 41.7884 47.76 42.724 49.52 42.0557C50.48 41.6929 50.97 41.9316 51.44 42.3039C51.44 42.3039 51.2 42.0748 50.89 41.7788C50.58 41.4924 50.16 41.1487 49.9 40.8814Z" fill="url(#paint7_linear_73_2223)"/>
<path d="M56.53 56.5673C56.75 55.1925 56.57 53.3116 56.69 52.2328C56.65 50.161 56.77 49.2541 57.05 48.2326C57.4 46.9341 58.72 44.7669 59.55 43.4016C59.55 43.4016 59.66 43.7835 59.83 44.3946C59.99 45.0056 60.12 45.884 60.28 46.8196C60.56 48.7195 60.91 50.9153 60.63 52.271C60.14 55.393 59.45 57.0638 57.58 57.3693C56.57 57.5412 56.28 57.9994 56.03 58.5532C56.03 58.5532 56.14 58.2381 56.26 57.8276C56.36 57.4266 56.47 56.9301 56.53 56.5673Z" fill="url(#paint8_linear_73_2223)"/>
<path d="M54.8699 56.8443C54.1099 55.67 53.5399 53.942 53.0099 53.0637C52.0399 51.307 51.3699 50.6674 50.6199 50.0086C49.6399 49.1589 47.4599 48.252 45.8599 47.8892C45.8599 47.8892 46.0099 48.1849 46.2599 48.6623C46.5099 49.1397 46.7699 49.8175 47.1299 50.5431C47.7999 52.0038 48.7799 53.6938 49.4099 54.6867C51.0199 56.9398 52.3299 58.1904 54.1999 57.9231C55.2199 57.7703 55.6799 58.1046 56.0299 58.582C56.0299 58.582 55.8499 58.305 55.6199 57.9517C55.3799 57.5794 55.0699 57.1594 54.8699 56.8443Z" fill="url(#paint9_linear_73_2223)"/>
<path d="M57.61 73.5519C58.15 72.263 58.4801 70.3918 58.8101 69.3703C59.2201 67.3463 59.6 66.487 60.11 65.5514C60.44 64.9499 61.05 64.2051 61.74 63.4508C62.38 62.7061 63.09 61.952 63.68 61.3792C63.68 61.3792 63.6901 61.7707 63.7101 62.4103C63.7501 63.0404 63.6901 63.9186 63.6001 64.8638C63.4101 66.7732 63.1901 68.9788 62.6601 70.2486C61.4101 73.1796 60.3301 74.6594 58.4401 74.5639C57.4101 74.5162 57.0101 74.898 56.6901 75.3944C56.6801 75.3944 57.31 74.2393 57.61 73.5519Z" fill="url(#paint10_linear_73_2223)"/>
<path d="M55.93 73.466C55.47 72.158 55.39 70.3536 55.03 69.3798C54.46 67.4512 54.01 66.6971 53.43 65.8856C53.06 65.37 52.39 64.759 51.65 64.2052C50.86 63.6515 49.99 63.1455 49.28 62.7827C49.28 62.7827 49.36 63.1074 49.48 63.623C49.64 64.1385 49.75 64.8545 49.9 65.6373C50.19 67.2126 50.71 69.0648 51.16 70.1723C52.17 72.7214 53.12 74.2109 55.01 74.3541C56.04 74.4304 56.4 74.8504 56.68 75.385C56.69 75.3946 56.17 74.163 55.93 73.466Z" fill="url(#paint11_linear_73_2223)"/>
<path d="M54.7199 90.3359C55.1499 89.7727 55.5899 89.0565 55.9299 88.3596C56.2499 87.6531 56.5399 86.9753 56.8199 86.5075C57.7399 84.6267 58.3399 83.8724 59.0699 83.08C59.9699 82.0584 61.9999 80.6454 63.4599 79.7671C63.4599 79.7671 63.1199 81.3233 62.6199 83.1564C61.9899 84.9799 61.1299 87.0612 60.3799 88.1974C59.5499 89.5244 58.6499 90.4505 57.8199 91.0138C56.9899 91.577 56.1699 91.7489 55.2599 91.4911C54.2699 91.2238 53.7799 91.5102 53.3399 91.9111C53.3299 91.9207 54.2499 90.9374 54.7199 90.3359Z" fill="url(#paint12_linear_73_2223)"/>
<path d="M53.1 89.897C53.04 89.2096 53.14 88.4362 53.17 87.6915C53.18 86.9373 53.2 86.2307 53.13 85.7152C53.07 83.7294 52.83 82.8893 52.47 81.9918C51.97 80.8175 50.28 79.0703 49.09 78.0774C49.09 78.0774 49.05 79.3854 49.09 80.9989C49.01 82.5933 48.95 84.4835 49.19 85.6674C49.5 87.0422 49.67 88.1116 50.08 88.9327C50.48 89.7442 51.07 90.2979 51.97 90.5652C52.95 90.8612 53.2 91.348 53.33 91.9304C53.34 91.9209 53.15 90.613 53.1 89.897Z" fill="url(#paint13_linear_73_2223)"/>
<path d="M47.9299 106.07C49.0799 105.182 50.0499 103.54 50.8599 102.776C52.2499 101.163 53.02 100.571 53.84 99.9215C54.93 99.11 57.32 98.1933 58.95 97.6587C58.95 97.6587 58.2199 99.0908 57.2599 100.762C57.0199 101.172 56.7599 101.602 56.4999 102.041C56.2299 102.471 55.9099 102.872 55.6099 103.263C55.0099 104.036 54.41 104.733 53.9 105.201C51.59 107.387 49.8 108.189 48.16 107.321C47.26 106.843 46.7099 107.015 46.1699 107.311C46.1799 107.301 47.3199 106.547 47.9299 106.07Z" fill="url(#paint14_linear_73_2223)"/>
<path d="M46.46 105.287C46.72 103.96 47.29 102.213 47.46 101.201C47.91 99.272 47.9 98.4128 47.68 97.4199C47.44 96.1501 46.28 94.107 45.37 92.8945C45.37 92.8945 44.99 94.1547 44.61 95.7205C44.52 96.1119 44.43 96.5225 44.34 96.9425C44.25 97.3531 44.11 97.7541 44.02 98.1551C43.82 98.9475 43.67 99.7017 43.63 100.303C43.52 103.091 43.56 104.762 45.2 105.688C46.09 106.184 46.2 106.709 46.19 107.301C46.18 107.301 46.32 106.003 46.46 105.287Z" fill="url(#paint15_linear_73_2223)"/>
<path d="M37.5801 119.932C38.8401 119.245 40.2501 117.937 41.2101 117.355C42.9901 116.123 43.7501 115.608 44.7601 115.197C46.0301 114.653 48.5901 114.29 50.3201 114.128C50.3201 114.128 49.2601 115.35 47.9001 116.753C47.2201 117.45 46.4801 118.204 45.7401 118.854C44.9601 119.474 44.2101 120.009 43.5901 120.352C42.1701 121.135 41.0101 121.661 40.0301 121.832C39.0501 122.014 38.2001 121.784 37.5101 121.193C36.7401 120.534 36.1701 120.582 35.5701 120.744C35.5801 120.753 36.8901 120.286 37.5801 119.932Z" fill="url(#paint16_linear_73_2223)"/>
<path d="M36.3301 118.853C36.8201 117.545 37.8801 116.037 38.2701 115.082C39.2201 113.335 39.2701 112.399 39.3601 111.426C39.4401 110.146 38.8101 107.922 38.2201 106.547C38.2201 106.547 37.5301 107.674 36.7701 109.115C36.3901 109.831 36.0001 110.633 35.6501 111.387C35.2501 112.113 34.9201 112.81 34.7401 113.373C34.3201 114.691 34.0601 115.789 34.0701 116.715C34.0901 117.641 34.3201 118.348 35.0101 118.978C35.7601 119.655 35.7401 120.19 35.5801 120.753C35.5801 120.753 36.0601 119.531 36.3301 118.853Z" fill="url(#paint17_linear_73_2223)"/>
<path d="M24.82 130.759C26.22 130.367 27.93 129.412 29 129.05C30.91 128.085 31.85 127.837 32.93 127.637C33.62 127.503 34.62 127.494 35.66 127.541C36.7 127.589 37.73 127.618 38.57 127.713C38.57 127.713 37.35 128.782 35.65 129.814C34.82 130.348 33.91 130.902 33.04 131.389C32.17 131.876 31.36 132.286 30.65 132.468C27.48 133.375 25.6 133.489 24.5 132.019C23.9 131.217 23.34 131.16 22.73 131.226C22.73 131.217 24.07 130.969 24.82 130.759Z" fill="url(#paint18_linear_73_2223)"/>
<path d="M23.8401 129.451C24.6301 128.296 26.0301 127.083 26.6301 126.233C27.8501 124.601 28.1901 123.789 28.4801 122.854C28.6701 122.252 28.7501 121.374 28.7401 120.476C28.7301 119.569 28.5801 118.586 28.4401 117.832C28.4401 117.832 27.6101 118.892 26.4801 120.075C25.9401 120.687 25.3601 121.364 24.8401 122.023C24.3301 122.691 23.8801 123.341 23.5501 123.827C22.1001 126.176 21.4701 127.828 22.5301 129.327C23.1101 130.138 22.9901 130.682 22.7201 131.227C22.7301 131.227 23.4201 130.062 23.8401 129.451Z" fill="url(#paint19_linear_73_2223)"/>
<path d="M9.23004 139.008C10.68 138.931 12.6201 138.454 13.6901 138.225C15.7901 137.719 16.7701 137.69 17.8701 137.738C19.3101 137.843 21.7201 138.464 23.3301 138.998C23.3301 138.998 22.9601 139.18 22.3701 139.457C21.7701 139.724 20.9701 140.144 20.0101 140.449C18.1301 141.108 15.9001 141.795 14.5101 141.958C11.2101 142.158 9.32005 141.815 8.61005 140.153C8.22005 139.246 7.68007 139.065 7.07007 138.989C7.08007 138.989 8.45004 139.046 9.23004 139.008Z" fill="url(#paint20_linear_73_2223)"/>
<path d="M8.58992 137.518C9.62992 136.564 11.3199 135.762 12.0599 134.969C13.6399 133.661 14.1699 132.955 14.6899 132.115C15.3799 131.074 15.7499 128.697 15.8199 127.188C15.8199 127.188 15.5499 127.389 15.1099 127.713C14.6699 128.038 14.0999 128.535 13.3999 128.974C12.0399 129.9 10.4699 131.074 9.65993 132C7.69993 133.967 6.66988 135.399 7.35988 137.098C7.72988 138.015 7.48992 138.511 7.08992 138.979C7.07992 138.989 8.02992 138.015 8.58992 137.518Z" fill="url(#paint21_linear_73_2223)"/>
<defs>
<linearGradient id="paint0_linear_73_2223" x1="84.6743" y1="19.1331" x2="-113.872" y2="180.243" gradientUnits="userSpaceOnUse">
<stop offset="0.005618" stop-color="#FBCF00"/>
<stop offset="0.2528" stop-color="#FFFCD1"/>
<stop offset="0.2957" stop-color="#FAF4C0"/>
<stop offset="0.3809" stop-color="#EFDD93"/>
<stop offset="0.4991" stop-color="#DCBA4B"/>
<stop offset="0.5955" stop-color="#CB9B0C"/>
<stop offset="0.7957" stop-color="#E8CD67"/>
<stop offset="0.8708" stop-color="#F3E18B"/>
<stop offset="1" stop-color="#FFFCD1"/>
</linearGradient>
<linearGradient id="paint1_linear_73_2223" x1="50.3118" y1="-23.2143" x2="-148.234" y2="137.895" gradientUnits="userSpaceOnUse">
<stop offset="0.005618" stop-color="#FBCF00"/>
<stop offset="0.2528" stop-color="#FFFCD1"/>
<stop offset="0.2957" stop-color="#FAF4C0"/>
<stop offset="0.3809" stop-color="#EFDD93"/>
<stop offset="0.4991" stop-color="#DCBA4B"/>
<stop offset="0.5955" stop-color="#CB9B0C"/>
<stop offset="0.7957" stop-color="#E8CD67"/>
<stop offset="0.8708" stop-color="#F3E18B"/>
<stop offset="1" stop-color="#FFFCD1"/>
</linearGradient>
<linearGradient id="paint2_linear_73_2223" x1="57.6419" y1="-14.181" x2="-140.905" y2="146.928" gradientUnits="userSpaceOnUse">
<stop offset="0.005618" stop-color="#FBCF00"/>
<stop offset="0.2528" stop-color="#FFFCD1"/>
<stop offset="0.2957" stop-color="#FAF4C0"/>
<stop offset="0.3809" stop-color="#EFDD93"/>
<stop offset="0.4991" stop-color="#DCBA4B"/>
<stop offset="0.5955" stop-color="#CB9B0C"/>
<stop offset="0.7957" stop-color="#E8CD67"/>
<stop offset="0.8708" stop-color="#F3E18B"/>
<stop offset="1" stop-color="#FFFCD1"/>
</linearGradient>
<linearGradient id="paint3_linear_73_2223" x1="59.1727" y1="-12.2946" x2="-139.376" y2="148.814" gradientUnits="userSpaceOnUse">
<stop offset="0.005618" stop-color="#FBCF00"/>
<stop offset="0.2528" stop-color="#FFFCD1"/>
<stop offset="0.2957" stop-color="#FAF4C0"/>
<stop offset="0.3809" stop-color="#EFDD93"/>
<stop offset="0.4991" stop-color="#DCBA4B"/>
<stop offset="0.5955" stop-color="#CB9B0C"/>
<stop offset="0.7957" stop-color="#E8CD67"/>
<stop offset="0.8708" stop-color="#F3E18B"/>
<stop offset="1" stop-color="#FFFCD1"/>
</linearGradient>
<linearGradient id="paint4_linear_73_2223" x1="68.7643" y1="-0.473935" x2="-129.782" y2="160.635" gradientUnits="userSpaceOnUse">
<stop offset="0.005618" stop-color="#FBCF00"/>
<stop offset="0.2528" stop-color="#FFFCD1"/>
<stop offset="0.2957" stop-color="#FAF4C0"/>
<stop offset="0.3809" stop-color="#EFDD93"/>
<stop offset="0.4991" stop-color="#DCBA4B"/>
<stop offset="0.5955" stop-color="#CB9B0C"/>
<stop offset="0.7957" stop-color="#E8CD67"/>
<stop offset="0.8708" stop-color="#F3E18B"/>
<stop offset="1" stop-color="#FFFCD1"/>
</linearGradient>
<linearGradient id="paint5_linear_73_2223" x1="69.3226" y1="0.21437" x2="-129.222" y2="161.324" gradientUnits="userSpaceOnUse">
<stop offset="0.005618" stop-color="#FBCF00"/>
<stop offset="0.2528" stop-color="#FFFCD1"/>
<stop offset="0.2957" stop-color="#FAF4C0"/>
<stop offset="0.3809" stop-color="#EFDD93"/>
<stop offset="0.4991" stop-color="#DCBA4B"/>
<stop offset="0.5955" stop-color="#CB9B0C"/>
<stop offset="0.7957" stop-color="#E8CD67"/>
<stop offset="0.8708" stop-color="#F3E18B"/>
<stop offset="1" stop-color="#FFFCD1"/>
</linearGradient>
<linearGradient id="paint6_linear_73_2223" x1="79.9902" y1="13.3603" x2="-118.556" y2="174.47" gradientUnits="userSpaceOnUse">
<stop offset="0.005618" stop-color="#FBCF00"/>
<stop offset="0.2528" stop-color="#FFFCD1"/>
<stop offset="0.2957" stop-color="#FAF4C0"/>
<stop offset="0.3809" stop-color="#EFDD93"/>
<stop offset="0.4991" stop-color="#DCBA4B"/>
<stop offset="0.5955" stop-color="#CB9B0C"/>
<stop offset="0.7957" stop-color="#E8CD67"/>
<stop offset="0.8708" stop-color="#F3E18B"/>
<stop offset="1" stop-color="#FFFCD1"/>
</linearGradient>
<linearGradient id="paint7_linear_73_2223" x1="79.547" y1="12.8143" x2="-119" y2="173.923" gradientUnits="userSpaceOnUse">
<stop offset="0.005618" stop-color="#FBCF00"/>
<stop offset="0.2528" stop-color="#FFFCD1"/>
<stop offset="0.2957" stop-color="#FAF4C0"/>
<stop offset="0.3809" stop-color="#EFDD93"/>
<stop offset="0.4991" stop-color="#DCBA4B"/>
<stop offset="0.5955" stop-color="#CB9B0C"/>
<stop offset="0.7957" stop-color="#E8CD67"/>
<stop offset="0.8708" stop-color="#F3E18B"/>
<stop offset="1" stop-color="#FFFCD1"/>
</linearGradient>
<linearGradient id="paint8_linear_73_2223" x1="90.8343" y1="26.7243" x2="-107.713" y2="187.833" gradientUnits="userSpaceOnUse">
<stop offset="0.005618" stop-color="#FBCF00"/>
<stop offset="0.2528" stop-color="#FFFCD1"/>
<stop offset="0.2957" stop-color="#FAF4C0"/>
<stop offset="0.3809" stop-color="#EFDD93"/>
<stop offset="0.4991" stop-color="#DCBA4B"/>
<stop offset="0.5955" stop-color="#CB9B0C"/>
<stop offset="0.7957" stop-color="#E8CD67"/>
<stop offset="0.8708" stop-color="#F3E18B"/>
<stop offset="1" stop-color="#FFFCD1"/>
</linearGradient>
<linearGradient id="paint9_linear_73_2223" x1="89.3155" y1="24.8532" x2="-109.23" y2="185.963" gradientUnits="userSpaceOnUse">
<stop offset="0.005618" stop-color="#FBCF00"/>
<stop offset="0.2528" stop-color="#FFFCD1"/>
<stop offset="0.2957" stop-color="#FAF4C0"/>
<stop offset="0.3809" stop-color="#EFDD93"/>
<stop offset="0.4991" stop-color="#DCBA4B"/>
<stop offset="0.5955" stop-color="#CB9B0C"/>
<stop offset="0.7957" stop-color="#E8CD67"/>
<stop offset="0.8708" stop-color="#F3E18B"/>
<stop offset="1" stop-color="#FFFCD1"/>
</linearGradient>
<linearGradient id="paint10_linear_73_2223" x1="100.789" y1="38.9929" x2="-97.7565" y2="200.103" gradientUnits="userSpaceOnUse">
<stop offset="0.005618" stop-color="#FBCF00"/>
<stop offset="0.2528" stop-color="#FFFCD1"/>
<stop offset="0.2957" stop-color="#FAF4C0"/>
<stop offset="0.3809" stop-color="#EFDD93"/>
<stop offset="0.4991" stop-color="#DCBA4B"/>
<stop offset="0.5955" stop-color="#CB9B0C"/>
<stop offset="0.7957" stop-color="#E8CD67"/>
<stop offset="0.8708" stop-color="#F3E18B"/>
<stop offset="1" stop-color="#FFFCD1"/>
</linearGradient>
<linearGradient id="paint11_linear_73_2223" x1="98.1239" y1="35.7084" x2="-100.422" y2="196.817" gradientUnits="userSpaceOnUse">
<stop offset="0.005618" stop-color="#FBCF00"/>
<stop offset="0.2528" stop-color="#FFFCD1"/>
<stop offset="0.2957" stop-color="#FAF4C0"/>
<stop offset="0.3809" stop-color="#EFDD93"/>
<stop offset="0.4991" stop-color="#DCBA4B"/>
<stop offset="0.5955" stop-color="#CB9B0C"/>
<stop offset="0.7957" stop-color="#E8CD67"/>
<stop offset="0.8708" stop-color="#F3E18B"/>
<stop offset="1" stop-color="#FFFCD1"/>
</linearGradient>
<linearGradient id="paint12_linear_73_2223" x1="109.215" y1="49.3764" x2="-89.3307" y2="210.485" gradientUnits="userSpaceOnUse">
<stop offset="0.005618" stop-color="#FBCF00"/>
<stop offset="0.2528" stop-color="#FFFCD1"/>
<stop offset="0.2957" stop-color="#FAF4C0"/>
<stop offset="0.3809" stop-color="#EFDD93"/>
<stop offset="0.4991" stop-color="#DCBA4B"/>
<stop offset="0.5955" stop-color="#CB9B0C"/>
<stop offset="0.7957" stop-color="#E8CD67"/>
<stop offset="0.8708" stop-color="#F3E18B"/>
<stop offset="1" stop-color="#FFFCD1"/>
</linearGradient>
<linearGradient id="paint13_linear_73_2223" x1="105.526" y1="44.8299" x2="-93.0206" y2="205.939" gradientUnits="userSpaceOnUse">
<stop offset="0.005618" stop-color="#FBCF00"/>
<stop offset="0.2528" stop-color="#FFFCD1"/>
<stop offset="0.2957" stop-color="#FAF4C0"/>
<stop offset="0.3809" stop-color="#EFDD93"/>
<stop offset="0.4991" stop-color="#DCBA4B"/>
<stop offset="0.5955" stop-color="#CB9B0C"/>
<stop offset="0.7957" stop-color="#E8CD67"/>
<stop offset="0.8708" stop-color="#F3E18B"/>
<stop offset="1" stop-color="#FFFCD1"/>
</linearGradient>
<linearGradient id="paint14_linear_73_2223" x1="115.47" y1="57.0846" x2="-83.078" y2="218.194" gradientUnits="userSpaceOnUse">
<stop offset="0.005618" stop-color="#FBCF00"/>
<stop offset="0.2528" stop-color="#FFFCD1"/>
<stop offset="0.2957" stop-color="#FAF4C0"/>
<stop offset="0.3809" stop-color="#EFDD93"/>
<stop offset="0.4991" stop-color="#DCBA4B"/>
<stop offset="0.5955" stop-color="#CB9B0C"/>
<stop offset="0.7957" stop-color="#E8CD67"/>
<stop offset="0.8708" stop-color="#F3E18B"/>
<stop offset="1" stop-color="#FFFCD1"/>
</linearGradient>
<linearGradient id="paint15_linear_73_2223" x1="111.145" y1="51.754" x2="-87.4024" y2="212.863" gradientUnits="userSpaceOnUse">
<stop offset="0.005618" stop-color="#FBCF00"/>
<stop offset="0.2528" stop-color="#FFFCD1"/>
<stop offset="0.2957" stop-color="#FAF4C0"/>
<stop offset="0.3809" stop-color="#EFDD93"/>
<stop offset="0.4991" stop-color="#DCBA4B"/>
<stop offset="0.5955" stop-color="#CB9B0C"/>
<stop offset="0.7957" stop-color="#E8CD67"/>
<stop offset="0.8708" stop-color="#F3E18B"/>
<stop offset="1" stop-color="#FFFCD1"/>
</linearGradient>
<linearGradient id="paint16_linear_73_2223" x1="119.223" y1="61.7095" x2="-79.3246" y2="222.819" gradientUnits="userSpaceOnUse">
<stop offset="0.005618" stop-color="#FBCF00"/>
<stop offset="0.2528" stop-color="#FFFCD1"/>
<stop offset="0.2957" stop-color="#FAF4C0"/>
<stop offset="0.3809" stop-color="#EFDD93"/>
<stop offset="0.4991" stop-color="#DCBA4B"/>
<stop offset="0.5955" stop-color="#CB9B0C"/>
<stop offset="0.7957" stop-color="#E8CD67"/>
<stop offset="0.8708" stop-color="#F3E18B"/>
<stop offset="1" stop-color="#FFFCD1"/>
</linearGradient>
<linearGradient id="paint17_linear_73_2223" x1="114.687" y1="56.1207" x2="-83.8578" y2="217.229" gradientUnits="userSpaceOnUse">
<stop offset="0.005618" stop-color="#FBCF00"/>
<stop offset="0.2528" stop-color="#FFFCD1"/>
<stop offset="0.2957" stop-color="#FAF4C0"/>
<stop offset="0.3809" stop-color="#EFDD93"/>
<stop offset="0.4991" stop-color="#DCBA4B"/>
<stop offset="0.5955" stop-color="#CB9B0C"/>
<stop offset="0.7957" stop-color="#E8CD67"/>
<stop offset="0.8708" stop-color="#F3E18B"/>
<stop offset="1" stop-color="#FFFCD1"/>
</linearGradient>
<linearGradient id="paint18_linear_73_2223" x1="120.376" y1="63.1313" x2="-78.1695" y2="224.241" gradientUnits="userSpaceOnUse">
<stop offset="0.005618" stop-color="#FBCF00"/>
<stop offset="0.2528" stop-color="#FFFCD1"/>
<stop offset="0.2957" stop-color="#FAF4C0"/>
<stop offset="0.3809" stop-color="#EFDD93"/>
<stop offset="0.4991" stop-color="#DCBA4B"/>
<stop offset="0.5955" stop-color="#CB9B0C"/>
<stop offset="0.7957" stop-color="#E8CD67"/>
<stop offset="0.8708" stop-color="#F3E18B"/>
<stop offset="1" stop-color="#FFFCD1"/>
</linearGradient>
<linearGradient id="paint19_linear_73_2223" x1="115.96" y1="57.6882" x2="-82.5866" y2="218.796" gradientUnits="userSpaceOnUse">
<stop offset="0.005618" stop-color="#FBCF00"/>
<stop offset="0.2528" stop-color="#FFFCD1"/>
<stop offset="0.2957" stop-color="#FAF4C0"/>
<stop offset="0.3809" stop-color="#EFDD93"/>
<stop offset="0.4991" stop-color="#DCBA4B"/>
<stop offset="0.5955" stop-color="#CB9B0C"/>
<stop offset="0.7957" stop-color="#E8CD67"/>
<stop offset="0.8708" stop-color="#F3E18B"/>
<stop offset="1" stop-color="#FFFCD1"/>
</linearGradient>
<linearGradient id="paint20_linear_73_2223" x1="119.4" y1="61.9291" x2="-79.144" y2="223.039" gradientUnits="userSpaceOnUse">
<stop offset="0.005618" stop-color="#FBCF00"/>
<stop offset="0.2528" stop-color="#FFFCD1"/>
<stop offset="0.2957" stop-color="#FAF4C0"/>
<stop offset="0.3809" stop-color="#EFDD93"/>
<stop offset="0.4991" stop-color="#DCBA4B"/>
<stop offset="0.5955" stop-color="#CB9B0C"/>
<stop offset="0.7957" stop-color="#E8CD67"/>
<stop offset="0.8708" stop-color="#F3E18B"/>
<stop offset="1" stop-color="#FFFCD1"/>
</linearGradient>
<linearGradient id="paint21_linear_73_2223" x1="114.99" y1="56.4931" x2="-83.5573" y2="217.601" gradientUnits="userSpaceOnUse">
<stop offset="0.005618" stop-color="#FBCF00"/>
<stop offset="0.2528" stop-color="#FFFCD1"/>
<stop offset="0.2957" stop-color="#FAF4C0"/>
<stop offset="0.3809" stop-color="#EFDD93"/>
<stop offset="0.4991" stop-color="#DCBA4B"/>
<stop offset="0.5955" stop-color="#CB9B0C"/>
<stop offset="0.7957" stop-color="#E8CD67"/>
<stop offset="0.8708" stop-color="#F3E18B"/>
<stop offset="1" stop-color="#FFFCD1"/>
</linearGradient>
</defs>
</svg>
