<svg width="64" height="142" viewBox="0 0 64 142" fill="none" xmlns="http://www.w3.org/2000/svg">
<path d="M63.7227 141.251C57.9427 139.733 58.6727 140.783 47.3527 135.532C47.0027 135.361 46.4427 135.112 45.7427 134.731C45.0527 134.33 44.1927 133.824 43.1927 133.232C42.6927 132.936 42.1627 132.621 41.5927 132.286C41.0227 131.962 40.4227 131.599 39.8427 131.169C38.6527 130.329 37.3427 129.422 35.9527 128.439C30.5327 124.353 24.3327 118.405 19.4827 111.493C14.5627 104.628 11.0827 96.914 9.21266 90.5555C8.97266 89.7631 8.70266 88.9992 8.50266 88.264C8.33266 87.5098 8.17266 86.7842 8.01266 86.0968C7.70266 84.7124 7.42266 83.4618 7.17266 82.3639C6.87266 80.1394 6.65266 78.5545 6.55266 77.8099C5.92266 71.8333 5.82266 65.7614 6.74266 59.7944C6.85266 59.0497 6.91266 58.2954 7.05266 57.5602L7.52266 55.3452L7.99265 53.1304C8.07265 52.7581 8.14266 52.3951 8.23266 52.0228L8.55266 50.9345L9.85266 46.5905L11.4927 42.3515C13.8727 36.776 16.8727 31.4486 20.5427 26.5508C24.2727 21.7008 28.5827 17.2804 33.3627 13.3947L37.0427 10.5879L40.9227 8.05774L41.8927 7.42771L42.9127 6.86434L44.9527 5.75694L46.9927 4.64955L49.1127 3.69482L47.0527 4.75444L45.0727 5.94784L43.0927 7.14124L42.1027 7.74284L41.1627 8.4111L37.4127 11.0653L33.8727 13.9677C29.2627 17.9584 25.1327 22.4073 21.5527 27.2382C18.0627 32.1264 15.1427 37.3775 12.8927 42.8767L11.3027 47.0392L10.0527 51.3067L9.74265 52.3761C9.65265 52.7389 9.59266 53.1016 9.51266 53.4644L9.06266 55.6412L8.61266 57.8085C8.47266 58.534 8.42266 59.2692 8.32266 60.0044C7.39266 65.8473 7.47266 71.8047 8.05266 77.6667C8.15266 78.4019 8.35266 79.958 8.63266 82.1443C8.87266 83.2232 9.14266 84.4453 9.44266 85.8106C9.59266 86.4884 9.75266 87.1949 9.91266 87.9396C10.1127 88.6652 10.3727 89.4193 10.6127 90.1926C12.4227 96.4365 15.8327 104.017 20.6427 110.776C25.3927 117.574 31.4627 123.436 36.7827 127.475C38.1527 128.439 39.4227 129.346 40.5927 130.167C41.1627 130.597 41.7527 130.95 42.3127 131.274C42.8727 131.608 43.3927 131.914 43.8827 132.21C44.8627 132.792 45.7027 133.298 46.3727 133.699C47.0627 134.091 47.6127 134.33 47.9527 134.511C58.9827 139.877 58.2727 139.017 63.7227 141.251Z" fill="url(#paint0_linear_73_2180)"/>
<path d="M42.0227 7.56133C42.0227 7.56133 43.2427 7.72376 44.9727 7.45644C45.8327 7.32278 46.8227 7.07444 47.8627 6.62572C48.9227 6.22474 50.0727 5.69021 51.2227 4.84051C51.9727 4.31541 52.7027 3.65664 53.4827 3.15063C54.2427 2.62553 54.9827 2.10035 55.6127 1.63254C56.8927 0.677816 57.7927 0 57.7927 0C57.7927 0 56.6627 0.0955282 55.0427 0.29602C54.2327 0.40104 53.2927 0.52506 52.3227 0.677816C51.3327 0.811477 50.3827 1.11695 49.4327 1.35563C47.9827 1.77571 46.7327 2.32965 45.7527 2.99796C44.7927 3.70446 44.0527 4.44912 43.4927 5.12697C42.3827 6.48268 42.0227 7.56133 42.0227 7.56133Z" fill="url(#paint1_linear_73_2180)"/>
<path d="M33.2028 12.9651C33.9328 11.7622 35.3227 10.4159 35.9327 9.5089C37.3427 7.93361 37.8327 7.14121 38.2927 6.18649C38.5928 5.57547 38.8327 4.65905 39.0327 3.68524C39.2427 2.72096 39.4427 1.74704 39.5428 0.945068C39.5428 0.945068 39.2127 1.17433 38.6727 1.55622C38.1227 1.90947 37.4527 2.52043 36.7127 3.16009C35.9727 3.8093 35.1927 4.5157 34.4927 5.21265C34.1427 5.55635 33.8127 5.89056 33.5327 6.22471C33.2627 6.56841 33.0327 6.89303 32.8527 7.18899C31.1727 9.90041 30.6027 11.619 31.8527 12.9842C32.5227 13.7194 32.4528 14.2635 32.2728 14.8459C32.2728 14.8459 32.4027 14.5404 32.5727 14.1394C32.7627 13.7384 33.0028 13.2802 33.2028 12.9651Z" fill="url(#paint2_linear_73_2180)"/>
<path d="M34.3027 14.1778C35.6627 13.7195 37.2527 12.7264 38.2427 12.3637C40.1727 11.5999 41.0927 11.4853 42.1127 11.428C42.7727 11.3899 43.6827 11.5331 44.6027 11.7432C45.5227 11.9723 46.4927 12.335 47.2227 12.6406C47.2227 12.6406 46.9127 12.7743 46.4027 13.0035C45.8827 13.204 45.2327 13.5763 44.4827 13.9295C43.7327 14.2923 42.9027 14.6645 42.1127 14.9891C41.7127 15.1514 41.3227 15.2948 40.9527 15.419C40.6027 15.5622 40.2727 15.6862 39.9727 15.7721C37.2327 16.555 35.3927 16.7365 34.1227 15.3998C33.4227 14.6647 32.8527 14.655 32.2727 14.8078C32.2727 14.8078 32.5927 14.7028 33.0027 14.5596C33.4227 14.4545 33.9327 14.3019 34.3027 14.1778Z" fill="url(#paint3_linear_73_2180)"/>
<path d="M21.1126 25.472C21.5426 24.1449 22.5826 22.5411 22.9726 21.5195C23.9626 19.6674 24.2726 18.8082 24.4826 17.7771C24.7626 16.4596 24.5826 13.9676 24.4626 12.3923C24.4626 12.3923 23.3326 13.5572 22.2326 15.1516C21.1126 16.7365 19.7926 18.5695 19.4126 19.8966C18.4126 22.8944 18.2526 24.6892 19.7826 25.7489C20.6026 26.3217 20.6926 26.8755 20.6426 27.477C20.6426 27.477 20.7026 27.1428 20.7726 26.7227C20.8526 26.3122 21.0026 25.8252 21.1126 25.472Z" fill="url(#paint4_linear_73_2180)"/>
<path d="M22.4726 26.4171C23.6926 25.6819 25.0126 24.374 25.8926 23.8107C27.5726 22.6364 28.4626 22.3501 29.4426 22.0733C30.7126 21.72 33.1026 21.8249 34.7026 22.1686C34.7026 22.1686 33.5926 22.9612 32.3326 24.0114C31.0526 25.0425 29.4026 26.1498 28.3726 26.7704C25.8726 28.1166 24.1326 28.6893 22.5726 27.6582C21.7226 27.0854 21.1826 27.2191 20.6326 27.4865C20.6326 27.4865 20.9226 27.3147 21.2926 27.0951C21.6726 26.866 22.1426 26.608 22.4726 26.4171Z" fill="url(#paint5_linear_73_2180)"/>
<path d="M12.2727 40.2513C12.3827 38.8669 13.0127 37.0814 13.1527 36.0026C13.6627 33.9786 13.7727 33.0812 13.7427 32.031C13.7127 30.6944 12.9427 28.298 12.4527 26.78C12.4527 26.78 12.2627 27.1237 11.9427 27.687C11.6427 28.2503 11.3027 29.0714 10.9227 29.9498C10.1927 31.7351 9.35269 33.8068 9.29269 35.1912C9.02269 38.3322 9.29268 40.1079 11.0327 40.8144C11.9727 41.1963 12.1827 41.7215 12.2827 42.3134C12.2827 42.3134 12.2627 41.9792 12.2327 41.5496C12.2227 41.1295 12.2527 40.6236 12.2727 40.2513Z" fill="url(#paint6_linear_73_2180)"/>
<path d="M13.8227 40.8814C14.8427 39.898 15.8127 38.3419 16.5427 37.6068C17.8927 36.0983 18.7027 35.6304 19.5827 35.1435C20.7427 34.5325 23.0827 34.1123 24.7227 34.1028C24.7227 34.1028 24.5027 34.3607 24.1527 34.7617C23.8027 35.1723 23.3827 35.7737 22.8627 36.4038C21.8527 37.6831 20.5127 39.1152 19.6527 39.9458C17.5327 41.7884 15.9627 42.724 14.2027 42.0557C13.2427 41.6929 12.7527 41.9316 12.2827 42.3039C12.2827 42.3039 12.5227 42.0748 12.8327 41.7788C13.1427 41.4924 13.5627 41.1487 13.8227 40.8814Z" fill="url(#paint7_linear_73_2180)"/>
<path d="M7.19269 56.5673C6.97269 55.1925 7.15269 53.3116 7.03269 52.2328C7.07269 50.161 6.95269 49.2541 6.67269 48.2326C6.32269 46.9341 5.00269 44.7669 4.17269 43.4016C4.17269 43.4016 4.06269 43.7835 3.89269 44.3946C3.73269 45.0056 3.60269 45.884 3.44269 46.8196C3.16269 48.7195 2.81269 50.9153 3.09269 52.271C3.58269 55.393 4.27269 57.0638 6.14269 57.3693C7.15269 57.5412 7.44269 57.9994 7.69269 58.5532C7.69269 58.5532 7.58269 58.2381 7.46269 57.8276C7.36269 57.4266 7.25269 56.9301 7.19269 56.5673Z" fill="url(#paint8_linear_73_2180)"/>
<path d="M8.85262 56.8443C9.61262 55.67 10.1826 53.942 10.7126 53.0637C11.6826 51.307 12.3526 50.6674 13.1026 50.0086C14.0826 49.1589 16.2626 48.252 17.8626 47.8892C17.8626 47.8892 17.7126 48.1849 17.4626 48.6623C17.2126 49.1397 16.9526 49.8175 16.5926 50.5431C15.9226 52.0038 14.9426 53.6938 14.3126 54.6867C12.7026 56.9398 11.3926 58.1904 9.52263 57.9231C8.50263 57.7703 8.04263 58.1046 7.69263 58.582C7.69263 58.582 7.87262 58.305 8.10262 57.9517C8.34262 57.5794 8.65262 57.1594 8.85262 56.8443Z" fill="url(#paint9_linear_73_2180)"/>
<path d="M6.11263 73.5519C5.57263 72.263 5.24263 70.3918 4.91263 69.3703C4.50263 67.3463 4.12263 66.487 3.61263 65.5514C3.28263 64.9499 2.67263 64.2051 1.98263 63.4508C1.34263 62.7061 0.632627 61.952 0.0426274 61.3792C0.0426274 61.3792 0.0326286 61.7707 0.0126286 62.4103C-0.0273714 63.0404 0.0326292 63.9186 0.122629 64.8638C0.312629 66.7732 0.532628 68.9788 1.06263 70.2486C2.31263 73.1796 3.39263 74.6594 5.28263 74.5639C6.31263 74.5162 6.71263 74.898 7.03263 75.3944C7.04263 75.3944 6.41263 74.2393 6.11263 73.5519Z" fill="url(#paint10_linear_73_2180)"/>
<path d="M7.79262 73.466C8.25262 72.158 8.33262 70.3536 8.69262 69.3798C9.26262 67.4512 9.71262 66.6971 10.2926 65.8856C10.6626 65.37 11.3326 64.759 12.0726 64.2052C12.8626 63.6515 13.7326 63.1455 14.4426 62.7827C14.4426 62.7827 14.3626 63.1074 14.2426 63.623C14.0826 64.1385 13.9726 64.8545 13.8226 65.6373C13.5326 67.2126 13.0126 69.0648 12.5626 70.1723C11.5526 72.7214 10.6026 74.2109 8.71262 74.3541C7.68262 74.4304 7.32262 74.8504 7.04262 75.385C7.03262 75.3946 7.55262 74.163 7.79262 73.466Z" fill="url(#paint11_linear_73_2180)"/>
<path d="M9.00269 90.3359C8.57269 89.7727 8.13269 89.0565 7.79269 88.3596C7.47269 87.6531 7.18269 86.9753 6.90269 86.5075C5.98269 84.6267 5.38269 83.8724 4.65269 83.08C3.75269 82.0584 1.7227 80.6454 0.262695 79.7671C0.262695 79.7671 0.602695 81.3233 1.1027 83.1564C1.7327 84.9799 2.59269 87.0612 3.34269 88.1974C4.17269 89.5244 5.07269 90.4505 5.90269 91.0138C6.73269 91.577 7.55269 91.7489 8.46269 91.4911C9.45269 91.2238 9.9427 91.5102 10.3827 91.9111C10.3927 91.9207 9.47269 90.9374 9.00269 90.3359Z" fill="url(#paint12_linear_73_2180)"/>
<path d="M10.6227 89.897C10.6827 89.2096 10.5827 88.4362 10.5527 87.6915C10.5427 86.9373 10.5227 86.2307 10.5927 85.7152C10.6527 83.7294 10.8927 82.8893 11.2527 81.9918C11.7527 80.8175 13.4427 79.0703 14.6327 78.0774C14.6327 78.0774 14.6727 79.3854 14.6327 80.9989C14.7127 82.5933 14.7727 84.4835 14.5327 85.6674C14.2227 87.0422 14.0527 88.1116 13.6427 88.9327C13.2427 89.7442 12.6527 90.2979 11.7527 90.5652C10.7727 90.8612 10.5227 91.348 10.3927 91.9304C10.3827 91.9209 10.5727 90.613 10.6227 89.897Z" fill="url(#paint13_linear_73_2180)"/>
<path d="M15.7927 106.07C14.6427 105.182 13.6727 103.54 12.8627 102.776C11.4727 101.163 10.7027 100.571 9.88271 99.9215C8.79271 99.11 6.40271 98.1933 4.77271 97.6587C4.77271 97.6587 5.50271 99.0908 6.46271 100.762C6.70271 101.172 6.96271 101.602 7.22271 102.041C7.49271 102.471 7.81271 102.872 8.11271 103.263C8.71271 104.036 9.3127 104.733 9.8227 105.201C12.1327 107.387 13.9227 108.189 15.5627 107.321C16.4627 106.843 17.0127 107.015 17.5527 107.311C17.5427 107.301 16.4027 106.547 15.7927 106.07Z" fill="url(#paint14_linear_73_2180)"/>
<path d="M17.2626 105.287C17.0026 103.96 16.4326 102.213 16.2626 101.201C15.8126 99.272 15.8226 98.4128 16.0426 97.4199C16.2826 96.1501 17.4426 94.107 18.3526 92.8945C18.3526 92.8945 18.7326 94.1547 19.1126 95.7205C19.2026 96.1119 19.2926 96.5225 19.3826 96.9425C19.4726 97.3531 19.6126 97.7541 19.7026 98.1551C19.9026 98.9475 20.0526 99.7017 20.0926 100.303C20.2026 103.091 20.1626 104.762 18.5226 105.688C17.6326 106.184 17.5226 106.709 17.5326 107.301C17.5426 107.301 17.4026 106.003 17.2626 105.287Z" fill="url(#paint15_linear_73_2180)"/>
<path d="M26.1426 119.932C24.8826 119.245 23.4726 117.937 22.5126 117.355C20.7326 116.123 19.9726 115.608 18.9626 115.197C17.6926 114.653 15.1326 114.29 13.4026 114.128C13.4026 114.128 14.4626 115.35 15.8226 116.753C16.5026 117.45 17.2426 118.204 17.9826 118.854C18.7626 119.474 19.5126 120.009 20.1326 120.352C21.5526 121.135 22.7126 121.661 23.6926 121.832C24.6726 122.014 25.5226 121.784 26.2126 121.193C26.9826 120.534 27.5526 120.582 28.1526 120.744C28.1426 120.753 26.8326 120.286 26.1426 119.932Z" fill="url(#paint16_linear_73_2180)"/>
<path d="M27.3926 118.853C26.9026 117.545 25.8426 116.037 25.4526 115.082C24.5026 113.335 24.4526 112.399 24.3626 111.426C24.2826 110.146 24.9126 107.922 25.5026 106.547C25.5026 106.547 26.1926 107.674 26.9526 109.115C27.3326 109.831 27.7226 110.633 28.0726 111.387C28.4726 112.113 28.8026 112.81 28.9826 113.373C29.4026 114.691 29.6626 115.789 29.6526 116.715C29.6326 117.641 29.4026 118.348 28.7126 118.978C27.9626 119.655 27.9826 120.19 28.1426 120.753C28.1426 120.753 27.6626 119.531 27.3926 118.853Z" fill="url(#paint17_linear_73_2180)"/>
<path d="M38.9026 130.759C37.5026 130.367 35.7926 129.412 34.7226 129.05C32.8126 128.085 31.8726 127.837 30.7926 127.637C30.1026 127.503 29.1026 127.494 28.0626 127.541C27.0226 127.589 25.9926 127.618 25.1526 127.713C25.1526 127.713 26.3726 128.782 28.0726 129.814C28.9026 130.348 29.8126 130.902 30.6826 131.389C31.5526 131.876 32.3626 132.286 33.0726 132.468C36.2426 133.375 38.1226 133.489 39.2226 132.019C39.8226 131.217 40.3826 131.16 40.9926 131.226C40.9926 131.217 39.6526 130.969 38.9026 130.759Z" fill="url(#paint18_linear_73_2180)"/>
<path d="M39.8825 129.451C39.0925 128.296 37.6925 127.083 37.0925 126.233C35.8725 124.601 35.5325 123.789 35.2425 122.854C35.0525 122.252 34.9725 121.374 34.9825 120.476C34.9925 119.569 35.1425 118.586 35.2825 117.832C35.2825 117.832 36.1125 118.892 37.2425 120.075C37.7825 120.687 38.3725 121.364 38.8825 122.023C39.3925 122.691 39.8425 123.341 40.1725 123.827C41.6225 126.176 42.2525 127.828 41.1925 129.327C40.6125 130.138 40.7325 130.682 41.0025 131.227C40.9925 131.227 40.3025 130.062 39.8825 129.451Z" fill="url(#paint19_linear_73_2180)"/>
<path d="M54.4926 139.008C53.0426 138.931 51.1026 138.454 50.0326 138.225C47.9326 137.719 46.9526 137.69 45.8526 137.738C44.4126 137.843 42.0026 138.464 40.3926 138.998C40.3926 138.998 40.7626 139.18 41.3526 139.457C41.9526 139.724 42.7526 140.144 43.7126 140.449C45.5926 141.108 47.8226 141.795 49.2126 141.958C52.5126 142.158 54.4026 141.815 55.1126 140.153C55.5026 139.246 56.0426 139.065 56.6526 138.989C56.6426 138.989 55.2726 139.046 54.4926 139.008Z" fill="url(#paint20_linear_73_2180)"/>
<path d="M55.1326 137.518C54.0926 136.564 52.4026 135.762 51.6626 134.969C50.0826 133.661 49.5526 132.955 49.0326 132.115C48.3426 131.074 47.9726 128.697 47.9026 127.188C47.9026 127.188 48.1726 127.389 48.6126 127.713C49.0526 128.038 49.6226 128.535 50.3226 128.974C51.6826 129.9 53.2526 131.074 54.0626 132C56.0226 133.967 57.0526 135.399 56.3626 137.098C55.9926 138.015 56.2326 138.511 56.6326 138.979C56.6426 138.989 55.6926 138.015 55.1326 137.518Z" fill="url(#paint21_linear_73_2180)"/>
<defs>
<linearGradient id="paint0_linear_73_2180" x1="-20.9516" y1="19.1332" x2="177.595" y2="180.243" gradientUnits="userSpaceOnUse">
<stop offset="0.005618" stop-color="#FBCF00"/>
<stop offset="0.2528" stop-color="#FFFCD1"/>
<stop offset="0.2957" stop-color="#FAF4C0"/>
<stop offset="0.3809" stop-color="#EFDD93"/>
<stop offset="0.4991" stop-color="#DCBA4B"/>
<stop offset="0.5955" stop-color="#CB9B0C"/>
<stop offset="0.7957" stop-color="#E8CD67"/>
<stop offset="0.8708" stop-color="#F3E18B"/>
<stop offset="1" stop-color="#FFFCD1"/>
</linearGradient>
<linearGradient id="paint1_linear_73_2180" x1="13.4108" y1="-23.2143" x2="211.957" y2="137.895" gradientUnits="userSpaceOnUse">
<stop offset="0.005618" stop-color="#FBCF00"/>
<stop offset="0.2528" stop-color="#FFFCD1"/>
<stop offset="0.2957" stop-color="#FAF4C0"/>
<stop offset="0.3809" stop-color="#EFDD93"/>
<stop offset="0.4991" stop-color="#DCBA4B"/>
<stop offset="0.5955" stop-color="#CB9B0C"/>
<stop offset="0.7957" stop-color="#E8CD67"/>
<stop offset="0.8708" stop-color="#F3E18B"/>
<stop offset="1" stop-color="#FFFCD1"/>
</linearGradient>
<linearGradient id="paint2_linear_73_2180" x1="6.08074" y1="-14.181" x2="204.628" y2="146.929" gradientUnits="userSpaceOnUse">
<stop offset="0.005618" stop-color="#FBCF00"/>
<stop offset="0.2528" stop-color="#FFFCD1"/>
<stop offset="0.2957" stop-color="#FAF4C0"/>
<stop offset="0.3809" stop-color="#EFDD93"/>
<stop offset="0.4991" stop-color="#DCBA4B"/>
<stop offset="0.5955" stop-color="#CB9B0C"/>
<stop offset="0.7957" stop-color="#E8CD67"/>
<stop offset="0.8708" stop-color="#F3E18B"/>
<stop offset="1" stop-color="#FFFCD1"/>
</linearGradient>
<linearGradient id="paint3_linear_73_2180" x1="4.54991" y1="-12.2946" x2="203.099" y2="148.814" gradientUnits="userSpaceOnUse">
<stop offset="0.005618" stop-color="#FBCF00"/>
<stop offset="0.2528" stop-color="#FFFCD1"/>
<stop offset="0.2957" stop-color="#FAF4C0"/>
<stop offset="0.3809" stop-color="#EFDD93"/>
<stop offset="0.4991" stop-color="#DCBA4B"/>
<stop offset="0.5955" stop-color="#CB9B0C"/>
<stop offset="0.7957" stop-color="#E8CD67"/>
<stop offset="0.8708" stop-color="#F3E18B"/>
<stop offset="1" stop-color="#FFFCD1"/>
</linearGradient>
<linearGradient id="paint4_linear_73_2180" x1="-5.0417" y1="-0.473931" x2="193.505" y2="160.635" gradientUnits="userSpaceOnUse">
<stop offset="0.005618" stop-color="#FBCF00"/>
<stop offset="0.2528" stop-color="#FFFCD1"/>
<stop offset="0.2957" stop-color="#FAF4C0"/>
<stop offset="0.3809" stop-color="#EFDD93"/>
<stop offset="0.4991" stop-color="#DCBA4B"/>
<stop offset="0.5955" stop-color="#CB9B0C"/>
<stop offset="0.7957" stop-color="#E8CD67"/>
<stop offset="0.8708" stop-color="#F3E18B"/>
<stop offset="1" stop-color="#FFFCD1"/>
</linearGradient>
<linearGradient id="paint5_linear_73_2180" x1="-5.60003" y1="0.214371" x2="192.944" y2="161.324" gradientUnits="userSpaceOnUse">
<stop offset="0.005618" stop-color="#FBCF00"/>
<stop offset="0.2528" stop-color="#FFFCD1"/>
<stop offset="0.2957" stop-color="#FAF4C0"/>
<stop offset="0.3809" stop-color="#EFDD93"/>
<stop offset="0.4991" stop-color="#DCBA4B"/>
<stop offset="0.5955" stop-color="#CB9B0C"/>
<stop offset="0.7957" stop-color="#E8CD67"/>
<stop offset="0.8708" stop-color="#F3E18B"/>
<stop offset="1" stop-color="#FFFCD1"/>
</linearGradient>
<linearGradient id="paint6_linear_73_2180" x1="-16.2672" y1="13.3603" x2="182.279" y2="174.469" gradientUnits="userSpaceOnUse">
<stop offset="0.005618" stop-color="#FBCF00"/>
<stop offset="0.2528" stop-color="#FFFCD1"/>
<stop offset="0.2957" stop-color="#FAF4C0"/>
<stop offset="0.3809" stop-color="#EFDD93"/>
<stop offset="0.4991" stop-color="#DCBA4B"/>
<stop offset="0.5955" stop-color="#CB9B0C"/>
<stop offset="0.7957" stop-color="#E8CD67"/>
<stop offset="0.8708" stop-color="#F3E18B"/>
<stop offset="1" stop-color="#FFFCD1"/>
</linearGradient>
<linearGradient id="paint7_linear_73_2180" x1="-15.8243" y1="12.8142" x2="182.723" y2="173.923" gradientUnits="userSpaceOnUse">
<stop offset="0.005618" stop-color="#FBCF00"/>
<stop offset="0.2528" stop-color="#FFFCD1"/>
<stop offset="0.2957" stop-color="#FAF4C0"/>
<stop offset="0.3809" stop-color="#EFDD93"/>
<stop offset="0.4991" stop-color="#DCBA4B"/>
<stop offset="0.5955" stop-color="#CB9B0C"/>
<stop offset="0.7957" stop-color="#E8CD67"/>
<stop offset="0.8708" stop-color="#F3E18B"/>
<stop offset="1" stop-color="#FFFCD1"/>
</linearGradient>
<linearGradient id="paint8_linear_73_2180" x1="-27.1117" y1="26.7243" x2="171.436" y2="187.834" gradientUnits="userSpaceOnUse">
<stop offset="0.005618" stop-color="#FBCF00"/>
<stop offset="0.2528" stop-color="#FFFCD1"/>
<stop offset="0.2957" stop-color="#FAF4C0"/>
<stop offset="0.3809" stop-color="#EFDD93"/>
<stop offset="0.4991" stop-color="#DCBA4B"/>
<stop offset="0.5955" stop-color="#CB9B0C"/>
<stop offset="0.7957" stop-color="#E8CD67"/>
<stop offset="0.8708" stop-color="#F3E18B"/>
<stop offset="1" stop-color="#FFFCD1"/>
</linearGradient>
<linearGradient id="paint9_linear_73_2180" x1="-25.5929" y1="24.8532" x2="172.953" y2="185.963" gradientUnits="userSpaceOnUse">
<stop offset="0.005618" stop-color="#FBCF00"/>
<stop offset="0.2528" stop-color="#FFFCD1"/>
<stop offset="0.2957" stop-color="#FAF4C0"/>
<stop offset="0.3809" stop-color="#EFDD93"/>
<stop offset="0.4991" stop-color="#DCBA4B"/>
<stop offset="0.5955" stop-color="#CB9B0C"/>
<stop offset="0.7957" stop-color="#E8CD67"/>
<stop offset="0.8708" stop-color="#F3E18B"/>
<stop offset="1" stop-color="#FFFCD1"/>
</linearGradient>
<linearGradient id="paint10_linear_73_2180" x1="-37.0667" y1="38.9929" x2="161.479" y2="200.103" gradientUnits="userSpaceOnUse">
<stop offset="0.005618" stop-color="#FBCF00"/>
<stop offset="0.2528" stop-color="#FFFCD1"/>
<stop offset="0.2957" stop-color="#FAF4C0"/>
<stop offset="0.3809" stop-color="#EFDD93"/>
<stop offset="0.4991" stop-color="#DCBA4B"/>
<stop offset="0.5955" stop-color="#CB9B0C"/>
<stop offset="0.7957" stop-color="#E8CD67"/>
<stop offset="0.8708" stop-color="#F3E18B"/>
<stop offset="1" stop-color="#FFFCD1"/>
</linearGradient>
<linearGradient id="paint11_linear_73_2180" x1="-34.4014" y1="35.7084" x2="164.144" y2="196.818" gradientUnits="userSpaceOnUse">
<stop offset="0.005618" stop-color="#FBCF00"/>
<stop offset="0.2528" stop-color="#FFFCD1"/>
<stop offset="0.2957" stop-color="#FAF4C0"/>
<stop offset="0.3809" stop-color="#EFDD93"/>
<stop offset="0.4991" stop-color="#DCBA4B"/>
<stop offset="0.5955" stop-color="#CB9B0C"/>
<stop offset="0.7957" stop-color="#E8CD67"/>
<stop offset="0.8708" stop-color="#F3E18B"/>
<stop offset="1" stop-color="#FFFCD1"/>
</linearGradient>
<linearGradient id="paint12_linear_73_2180" x1="-45.4923" y1="49.3764" x2="153.053" y2="210.485" gradientUnits="userSpaceOnUse">
<stop offset="0.005618" stop-color="#FBCF00"/>
<stop offset="0.2528" stop-color="#FFFCD1"/>
<stop offset="0.2957" stop-color="#FAF4C0"/>
<stop offset="0.3809" stop-color="#EFDD93"/>
<stop offset="0.4991" stop-color="#DCBA4B"/>
<stop offset="0.5955" stop-color="#CB9B0C"/>
<stop offset="0.7957" stop-color="#E8CD67"/>
<stop offset="0.8708" stop-color="#F3E18B"/>
<stop offset="1" stop-color="#FFFCD1"/>
</linearGradient>
<linearGradient id="paint13_linear_73_2180" x1="-41.803" y1="44.8299" x2="156.743" y2="205.939" gradientUnits="userSpaceOnUse">
<stop offset="0.005618" stop-color="#FBCF00"/>
<stop offset="0.2528" stop-color="#FFFCD1"/>
<stop offset="0.2957" stop-color="#FAF4C0"/>
<stop offset="0.3809" stop-color="#EFDD93"/>
<stop offset="0.4991" stop-color="#DCBA4B"/>
<stop offset="0.5955" stop-color="#CB9B0C"/>
<stop offset="0.7957" stop-color="#E8CD67"/>
<stop offset="0.8708" stop-color="#F3E18B"/>
<stop offset="1" stop-color="#FFFCD1"/>
</linearGradient>
<linearGradient id="paint14_linear_73_2180" x1="-51.7473" y1="57.0846" x2="146.801" y2="218.194" gradientUnits="userSpaceOnUse">
<stop offset="0.005618" stop-color="#FBCF00"/>
<stop offset="0.2528" stop-color="#FFFCD1"/>
<stop offset="0.2957" stop-color="#FAF4C0"/>
<stop offset="0.3809" stop-color="#EFDD93"/>
<stop offset="0.4991" stop-color="#DCBA4B"/>
<stop offset="0.5955" stop-color="#CB9B0C"/>
<stop offset="0.7957" stop-color="#E8CD67"/>
<stop offset="0.8708" stop-color="#F3E18B"/>
<stop offset="1" stop-color="#FFFCD1"/>
</linearGradient>
<linearGradient id="paint15_linear_73_2180" x1="-47.4221" y1="51.754" x2="151.125" y2="212.863" gradientUnits="userSpaceOnUse">
<stop offset="0.005618" stop-color="#FBCF00"/>
<stop offset="0.2528" stop-color="#FFFCD1"/>
<stop offset="0.2957" stop-color="#FAF4C0"/>
<stop offset="0.3809" stop-color="#EFDD93"/>
<stop offset="0.4991" stop-color="#DCBA4B"/>
<stop offset="0.5955" stop-color="#CB9B0C"/>
<stop offset="0.7957" stop-color="#E8CD67"/>
<stop offset="0.8708" stop-color="#F3E18B"/>
<stop offset="1" stop-color="#FFFCD1"/>
</linearGradient>
<linearGradient id="paint16_linear_73_2180" x1="-55.5002" y1="61.7095" x2="143.047" y2="222.819" gradientUnits="userSpaceOnUse">
<stop offset="0.005618" stop-color="#FBCF00"/>
<stop offset="0.2528" stop-color="#FFFCD1"/>
<stop offset="0.2957" stop-color="#FAF4C0"/>
<stop offset="0.3809" stop-color="#EFDD93"/>
<stop offset="0.4991" stop-color="#DCBA4B"/>
<stop offset="0.5955" stop-color="#CB9B0C"/>
<stop offset="0.7957" stop-color="#E8CD67"/>
<stop offset="0.8708" stop-color="#F3E18B"/>
<stop offset="1" stop-color="#FFFCD1"/>
</linearGradient>
<linearGradient id="paint17_linear_73_2180" x1="-50.9647" y1="56.1207" x2="147.58" y2="217.23" gradientUnits="userSpaceOnUse">
<stop offset="0.005618" stop-color="#FBCF00"/>
<stop offset="0.2528" stop-color="#FFFCD1"/>
<stop offset="0.2957" stop-color="#FAF4C0"/>
<stop offset="0.3809" stop-color="#EFDD93"/>
<stop offset="0.4991" stop-color="#DCBA4B"/>
<stop offset="0.5955" stop-color="#CB9B0C"/>
<stop offset="0.7957" stop-color="#E8CD67"/>
<stop offset="0.8708" stop-color="#F3E18B"/>
<stop offset="1" stop-color="#FFFCD1"/>
</linearGradient>
<linearGradient id="paint18_linear_73_2180" x1="-56.6534" y1="63.1313" x2="141.892" y2="224.241" gradientUnits="userSpaceOnUse">
<stop offset="0.005618" stop-color="#FBCF00"/>
<stop offset="0.2528" stop-color="#FFFCD1"/>
<stop offset="0.2957" stop-color="#FAF4C0"/>
<stop offset="0.3809" stop-color="#EFDD93"/>
<stop offset="0.4991" stop-color="#DCBA4B"/>
<stop offset="0.5955" stop-color="#CB9B0C"/>
<stop offset="0.7957" stop-color="#E8CD67"/>
<stop offset="0.8708" stop-color="#F3E18B"/>
<stop offset="1" stop-color="#FFFCD1"/>
</linearGradient>
<linearGradient id="paint19_linear_73_2180" x1="-52.2372" y1="57.6882" x2="146.309" y2="218.797" gradientUnits="userSpaceOnUse">
<stop offset="0.005618" stop-color="#FBCF00"/>
<stop offset="0.2528" stop-color="#FFFCD1"/>
<stop offset="0.2957" stop-color="#FAF4C0"/>
<stop offset="0.3809" stop-color="#EFDD93"/>
<stop offset="0.4991" stop-color="#DCBA4B"/>
<stop offset="0.5955" stop-color="#CB9B0C"/>
<stop offset="0.7957" stop-color="#E8CD67"/>
<stop offset="0.8708" stop-color="#F3E18B"/>
<stop offset="1" stop-color="#FFFCD1"/>
</linearGradient>
<linearGradient id="paint20_linear_73_2180" x1="-55.6772" y1="61.9291" x2="142.867" y2="223.039" gradientUnits="userSpaceOnUse">
<stop offset="0.005618" stop-color="#FBCF00"/>
<stop offset="0.2528" stop-color="#FFFCD1"/>
<stop offset="0.2957" stop-color="#FAF4C0"/>
<stop offset="0.3809" stop-color="#EFDD93"/>
<stop offset="0.4991" stop-color="#DCBA4B"/>
<stop offset="0.5955" stop-color="#CB9B0C"/>
<stop offset="0.7957" stop-color="#E8CD67"/>
<stop offset="0.8708" stop-color="#F3E18B"/>
<stop offset="1" stop-color="#FFFCD1"/>
</linearGradient>
<linearGradient id="paint21_linear_73_2180" x1="-51.2677" y1="56.4929" x2="147.28" y2="217.602" gradientUnits="userSpaceOnUse">
<stop offset="0.005618" stop-color="#FBCF00"/>
<stop offset="0.2528" stop-color="#FFFCD1"/>
<stop offset="0.2957" stop-color="#FAF4C0"/>
<stop offset="0.3809" stop-color="#EFDD93"/>
<stop offset="0.4991" stop-color="#DCBA4B"/>
<stop offset="0.5955" stop-color="#CB9B0C"/>
<stop offset="0.7957" stop-color="#E8CD67"/>
<stop offset="0.8708" stop-color="#F3E18B"/>
<stop offset="1" stop-color="#FFFCD1"/>
</linearGradient>
</defs>
</svg>
